<?xml version="1.0" standalone="no"?><!DOCTYPE svg PUBLIC "-//W3C//DTD SVG 1.1//EN" "http://www.w3.org/Graphics/SVG/1.1/DTD/svg11.dtd"><svg t="1560845711074" class="icon" style="" viewBox="0 0 1024 1024" version="1.1" xmlns="http://www.w3.org/2000/svg" p-id="13576" xmlns:xlink="http://www.w3.org/1999/xlink" width="200" height="200"><defs><style type="text/css"></style></defs><path d="M273.952 723.584l-158.688 0c-14.624 0-26.464 11.808-26.464 26.464l0 158.688c0 14.624 11.808 26.464 26.464 26.464l158.688 0c14.624 0 26.464-11.808 26.464-26.464l0-158.688c0-14.624-11.84-26.464-26.464-26.464zM247.488 855.84c0 14.624-11.808 26.464-26.464 26.464l-52.896 0c-14.624 0-26.464-11.808-26.464-26.464l0-52.896c0-14.624 11.84-26.464 26.464-26.464l52.896 0c14.624 0 26.464 11.808 26.464 26.464l0 52.896zM908.736 776.512l-476.096 0c-14.624 0-26.464 11.808-26.464 26.464l0 52.896c0 14.624 11.808 26.464 26.464 26.464l476.096 0c14.624 0 26.464-11.808 26.464-26.464l0-52.896c0-14.624-11.808-26.464-26.464-26.464zM908.736 459.104l-476.096 0c-14.624 0-26.464 11.808-26.464 26.464l0 52.896c0 14.624 11.808 26.464 26.464 26.464l476.096 0c14.624 0 26.464-11.808 26.464-26.464l0-52.896c0-14.624-11.808-26.464-26.464-26.464zM273.952 88.8l-158.688 0c-14.624 0-26.464 11.808-26.464 26.464l0 158.688c0 14.624 11.808 26.464 26.464 26.464l158.688 0c14.624 0 26.464-38.272 26.464-52.896l0-132.256c0-14.624-11.84-26.464-26.464-26.464zM247.488 221.056c0 14.624-11.808 26.464-26.464 26.464l-52.896 0c-14.624 0-26.464-11.84-26.464-26.464l0-52.896c0-14.624 11.84-26.464 26.464-26.464l52.896 0c14.624 0 26.464 11.808 26.464 26.464l0 52.896zM273.952 406.208l-158.688 0c-14.624 0-26.464 11.84-26.464 26.464l0 158.688c0 14.624 11.808 26.464 26.464 26.464l158.688 0c14.624 0 26.464-11.808 26.464-26.464l0-158.688c0-14.624-11.84-26.464-26.464-26.464zM247.488 538.464c0 14.624-11.808 26.464-26.464 26.464l-52.896 0c-14.624 0-26.464-11.808-26.464-26.464l0-52.896c0-14.624 11.84-26.464 26.464-26.464l52.896 0c14.624 0 26.464 11.84 26.464 26.464l0 52.896zM908.736 141.696l-476.096 0c-14.624 0-26.464 11.84-26.464 26.464l0 52.896c0 14.624 11.808 26.464 26.464 26.464l476.096 0c14.624 0 26.464-11.808 26.464-26.464l0-52.896c0-14.624-11.808-26.464-26.464-26.464z" p-id="13577"></path></svg>