<?xml version="1.0" standalone="no"?><!DOCTYPE svg PUBLIC "-//W3C//DTD SVG 1.1//EN" "http://www.w3.org/Graphics/SVG/1.1/DTD/svg11.dtd"><svg t="1561714631357" class="icon" viewBox="0 0 1024 1024" version="1.1" xmlns="http://www.w3.org/2000/svg" p-id="3115" xmlns:xlink="http://www.w3.org/1999/xlink" width="200" height="200"><defs><style type="text/css"></style></defs><path d="M349.090909 744.727273a139.636364 139.636364 0 1 1-139.636364 139.636363 139.636364 139.636364 0 0 1 139.636364-139.636363z m488.727273-302.545455a186.181818 186.181818 0 1 1-186.181818 186.181818 186.181818 186.181818 0 0 1 186.181818-186.181818z" fill="#E5E5E5" p-id="3116"></path><path d="M791.272727 768a185.669818 185.669818 0 0 1-148.945454-74.891636 21.853091 21.853091 0 0 1-2.187637 1.954909l-91.415272 45.614545a24.343273 24.343273 0 0 1-3.677091 2.862546l-89.390546 45.102545c-2.466909 1.233455-10.705455 4.840727-20.224 8.96A133.794909 133.794909 0 0 1 442.181818 837.818182a140.893091 140.893091 0 1 1-27.298909-82.106182c6.120727-3.793455 12.544-7.586909 17.221818-9.937455l89.390546-45.102545a25.925818 25.925818 0 0 1 7.982545-2.327273l87.552-43.682909a20.340364 20.340364 0 0 1 2.536727-0.861091 185.530182 185.530182 0 0 1 4.840728-154.274909l-258.885818-150.807273a207.592727 207.592727 0 1 1 27.136-37.934545l257.326545 149.899636A186.181818 186.181818 0 1 1 791.272727 768z m-488.727272-23.272727a93.090909 93.090909 0 1 0 93.090909 93.090909 93.090909 93.090909 0 0 0-93.090909-93.090909zM209.454545 46.545455a162.909091 162.909091 0 1 0 162.909091 162.90909 162.909091 162.909091 0 0 0-162.909091-162.90909z m581.818182 395.636363a139.636364 139.636364 0 1 0 139.636364 139.636364 139.636364 139.636364 0 0 0-139.636364-139.636364z" fill="#1C1C1C" p-id="3117"></path></svg>