<?xml version="1.0" standalone="no"?><!DOCTYPE svg PUBLIC "-//W3C//DTD SVG 1.1//EN" "http://www.w3.org/Graphics/SVG/1.1/DTD/svg11.dtd"><svg t="1560846150495" class="icon" style="" viewBox="0 0 1024 1024" version="1.1" xmlns="http://www.w3.org/2000/svg" p-id="15817" xmlns:xlink="http://www.w3.org/1999/xlink" width="200" height="200"><defs><style type="text/css"></style></defs><path d="M329.1264 256.049152q0-30.283776-21.4272-51.710976t-51.710976-21.4272-51.710976 21.4272-21.4272 51.710976 21.4272 51.710976 51.710976 21.4272 51.710976-21.4272 21.4272-51.710976zm609.675264 329.121792q0 30.283776-21.141504 51.42528l-280.553472 281.124864q-22.284288 21.141504-51.996672 21.141504-30.283776 0-51.42528-21.141504l-408.54528-409.116672q-21.712896-21.141504-36.854784-57.710592t-15.141888-66.852864l0-237.699072q0-29.712384 21.712896-51.42528t51.42528-21.712896l237.699072 0q30.283776 0 66.852864 15.141888t58.281984 36.854784l408.54528 407.973888q21.141504 22.284288 21.141504 51.996672z" p-id="15818"></path></svg>