<?xml version="1.0" standalone="no"?><!DOCTYPE svg PUBLIC "-//W3C//DTD SVG 1.1//EN" "http://www.w3.org/Graphics/SVG/1.1/DTD/svg11.dtd"><svg t="1560923303838" class="icon" style="" viewBox="0 0 1024 1024" version="1.1" xmlns="http://www.w3.org/2000/svg" p-id="1891" xmlns:xlink="http://www.w3.org/1999/xlink" width="200" height="200"><defs><style type="text/css"></style></defs><path d="M613.5 686l0 105.5q0 33.5-19.5 33.5-11.5 0-22.5-11l0-150.5q11-11 22.5-11 19.5 0 19.5 33.5zm169 0.5l0 23-45 0 0-23q0-34 22.5-34t22.5 34zm-483-109l53.5 0 0-47-156 0 0 47 52.5 0 0 284.5 50 0 0-284.5zm144 284.5l44.5 0 0-247-44.5 0 0 189q-15 21-28.5 21-9 0-10.5-10.5-0.5-1.5-0.5-17.5l0-182-44.5 0 0 195.5q0 24.5 4 36.5 6 18.5 29 18.5 24 0 51-30.5l0 27zm214.5-74l0-98.5q0-36.5-4.5-49.5-8.5-28-35.5-28-25 0-46.5 27l0-108.5-44.5 0 0 331.5 44.5 0 0-24q22.5 27.5 46.5 27.5 27 0 35.5-27.5 4.5-13.5 4.5-50zm169-5l0-6.5-45.5 0q0 25.5-1 30.5-3.5 18-20 18-23 0-23-34.5l0-43.5 89.5 0 0-51.5q0-39.5-13.5-58-19.5-25.5-53-25.5-34 0-53.5 25.5-14 18.5-14 58l0 86.5q0 39.5 14.5 58 19.5 25.5 54 25.5 36 0 54-26.5 9-13.5 10.5-27 1-4.5 1-29zm-304-456.5l0-105q0-34.5-21.5-34.5t-21.5 34.5l0 105q0 35 21.5 35t21.5-35zm359.5 375.5q0 117-13 175-7 29.5-29 49.5t-51 23q-92 10.5-277.5 10.5t-277.5-10.5q-29-3-51.25-23t-28.75-49.5q-13-56-13-175 0-117 13-175 7-29.5 29-49.5t51.5-23.5q91.5-10 277-10t277.5 10q29 3.5 51.25 23.5t28.75 49.5q13 56 13 175zm-499-638l51 0-60.5 199.5 0 135.5-50 0 0-135.5q-7-37-30.5-106-18.5-51.5-32.5-93.5l53 0 35.5 131.5zm185 166.5l0 87.5q0 40.5-14 59-18.5 25.5-53 25.5-33.5 0-52.5-25.5-14-19-14-59l0-87.5q0-40 14-58.5 19-25.5 52.5-25.5 34.5 0 53 25.5 14 18.5 14 58.5zm167.5-81l0 249.5-45.5 0 0-27.5q-26.5 31-51.5 31-23 0-29.5-18.5-4-12-4-37.5l0-197 45.5 0 0 183.5q0 16.5 0.5 17.5 1.5 11 10.5 11 13.5 0 28.5-21.5l0-190.5 45.5 0z" p-id="1892"></path></svg>